<?xml version="1.0" standalone="no"?>
<!DOCTYPE svg PUBLIC "-//W3C//DTD SVG 20010904//EN"
 "http://www.w3.org/TR/2001/REC-SVG-20010904/DTD/svg10.dtd">
<svg version="1.0" xmlns="http://www.w3.org/2000/svg"
 width="512.000000pt" height="512.000000pt" viewBox="0 0 512.000000 512.000000"
 preserveAspectRatio="xMidYMid meet">

<g transform="translate(0.000000,512.000000) scale(0.100000,-0.100000)"
fill="#000000" stroke="none">
<path d="M2390 5110 c-661 -81 -1188 -582 -1300 -1235 -17 -98 -20 -162 -20
-396 l0 -279 -170 0 c-133 0 -177 -3 -200 -15 -64 -33 -60 59 -60 -1428 0
-868 4 -1373 10 -1407 32 -170 170 -308 339 -340 74 -14 3069 -14 3141 0 170
32 308 170 340 339 6 34 10 543 10 1408 0 1487 4 1395 -60 1428 -23 12 -67 15
-200 15 l-170 0 0 279 c0 234 -3 298 -20 396 -81 474 -380 873 -821 1095 -87
44 -278 106 -384 125 -111 19 -334 27 -435 15z m405 -665 c234 -68 424 -229
530 -448 74 -156 78 -174 82 -504 l5 -293 -852 0 -852 0 5 293 c4 330 8 348
82 504 121 250 350 422 632 473 89 16 269 4 368 -25z m-115 -2117 c201 -60
333 -269 300 -473 -14 -84 -61 -178 -118 -234 l-50 -48 35 -312 c38 -340 38
-352 -16 -388 -23 -16 -52 -18 -271 -18 -219 0 -248 2 -271 18 -54 36 -54 48
-16 388 l35 312 -50 48 c-90 88 -136 229 -118 356 36 256 295 424 540 351z"/>
</g>
</svg>
