<?xml version="1.0" standalone="no"?>
<!DOCTYPE svg PUBLIC "-//W3C//DTD SVG 20010904//EN"
 "http://www.w3.org/TR/2001/REC-SVG-20010904/DTD/svg10.dtd">
<svg version="1.0" xmlns="http://www.w3.org/2000/svg"
 width="512.000000pt" height="512.000000pt" viewBox="0 0 512.000000 512.000000"
 preserveAspectRatio="xMidYMid meet">

<g transform="translate(0.000000,512.000000) scale(0.100000,-0.100000)"
fill="#000000" stroke="none">
<path d="M2376 5110 c-337 -39 -681 -217 -907 -471 -232 -259 -358 -552 -390
-901 -14 -154 -4 -226 46 -303 36 -57 106 -109 169 -126 60 -16 173 -6 223 19
59 31 111 86 139 147 19 41 26 81 34 181 31 399 264 697 637 811 78 24 104 27
233 27 129 0 155 -3 233 -27 292 -90 502 -295 599 -587 l32 -95 4 -462 3 -463
-1248 0 -1249 0 -52 -26 c-61 -30 -96 -68 -131 -144 l-26 -55 -3 -1175 c-2
-845 0 -1190 8 -1227 16 -73 80 -166 138 -201 l47 -27 1645 0 1645 0 46 27
c54 32 113 113 134 183 23 74 22 2357 0 2432 -22 73 -72 143 -129 178 -42 25
-62 31 -128 34 l-78 3 0 398 c0 219 -5 444 -10 501 -46 458 -282 854 -659
1111 -85 58 -266 147 -361 178 -175 56 -450 82 -644 60z m267 -3000 c145 -23
264 -130 312 -279 36 -111 5 -274 -70 -363 l-25 -30 0 -342 c0 -335 0 -343
-22 -386 -37 -73 -61 -80 -278 -80 -217 0 -241 7 -277 80 -23 43 -23 51 -23
386 l0 342 -25 30 c-75 89 -106 252 -70 363 67 207 253 316 478 279z"/>
</g>
</svg>
